<svg width="11" height="11" viewBox="0 0 11 11" fill="none" xmlns="http://www.w3.org/2000/svg">
<path d="M10.9221 10.2894L7.01094 4.6566L10.8702 0.76608C10.9575 0.675916 11.0025 0.557858 10.9954 0.437503C10.9883 0.317147 10.9298 0.204194 10.8325 0.123132C10.7351 0.0420695 10.6068 -0.000567884 10.4754 0.00446354C10.344 0.00949496 10.2201 0.0617895 10.1305 0.15001L6.45426 3.85559L3.92452 0.212418C3.87941 0.14735 3.81711 0.0937678 3.74339 0.056636C3.66967 0.0195042 3.58692 2.38929e-05 3.5028 5.41838e-08H0.503854C0.414237 -3.98862e-05 0.326255 0.0220018 0.249124 0.063817C0.171992 0.105632 0.108547 0.165683 0.0654322 0.237681C0.0223173 0.309678 0.00111871 0.390975 0.004056 0.473058C0.00699329 0.55514 0.0339584 0.634989 0.082128 0.704244L3.99325 6.33648L0.133985 10.2299C0.0889174 10.2742 0.0539067 10.3263 0.0309821 10.3832C0.00805748 10.4401 -0.00232535 10.5005 0.000435697 10.5611C0.00319675 10.6216 0.0190468 10.6811 0.0470668 10.736C0.0750868 10.7909 0.11472 10.8402 0.163668 10.8809C0.212617 10.9217 0.269908 10.9532 0.332221 10.9735C0.394533 10.9938 0.460628 11.0026 0.526675 10.9993C0.592721 10.9961 0.657406 10.9808 0.716979 10.9545C0.776553 10.9282 0.82983 10.8913 0.873724 10.8459L4.54993 7.14034L7.07966 10.7835C7.12514 10.8481 7.1876 10.9011 7.2613 10.9377C7.33499 10.9743 7.41756 10.9934 7.50139 10.9931H10.5003C10.5899 10.993 10.6777 10.971 10.7548 10.9292C10.8318 10.8874 10.8952 10.8274 10.9383 10.7555C10.9814 10.6836 11.0026 10.6024 10.9997 10.5204C10.9969 10.4384 10.9701 10.3586 10.9221 10.2894ZM7.77567 10.077L1.41416 0.916089H3.22602L9.59003 10.077H7.77567Z" fill="#EF5D2A"/>
</svg>
